<?xml version="1.0" encoding="utf-8"?>
<!-- Generator: Adobe Illustrator 26.3.1, SVG Export Plug-In . SVG Version: 6.00 Build 0)  -->
<svg version="1.1" id="Layer_1" xmlns="http://www.w3.org/2000/svg" xmlns:xlink="http://www.w3.org/1999/xlink" x="0px" y="0px"
	 viewBox="0 0 1080 1080" style="enable-background:new 0 0 1080 1080;" xml:space="preserve">
<style type="text/css">
	.st0{fill:#0C1726;}
</style>
<g>
	<path class="st0" d="M894.4,350.1c34.3-6.7,50.2-30.7,60-61.8c8.6,32.1,24.9,55.6,59.9,61.7c-34.6,5.9-50.9,29.3-60.4,61.6
		C945.3,378.8,928.1,356.6,894.4,350.1z"/>
	<path class="st0" d="M920.1,463.2c-17.1-3.3-25.1-15.3-30-30.9c-4.3,16-12.5,27.8-29.9,30.8c17.3,3,25.4,14.6,30.2,30.8
		C894.6,477.5,903.2,466.4,920.1,463.2z"/>
	<path class="st0" d="M65.7,603c34.3-6.7,50.2-30.7,60-61.8c8.6,32.1,24.9,55.6,59.9,61.7c-34.6,5.9-50.9,29.3-60.4,61.6
		C116.7,631.7,99.4,609.5,65.7,603z"/>
	<path class="st0" d="M223.6,705.2c-17.1-3.3-25.1-15.3-30-30.9c-4.3,16-12.5,27.8-29.9,30.8c17.3,3,25.4,14.6,30.2,30.8
		C198.1,719.5,206.8,708.4,223.6,705.2z"/>
	<path class="st0" d="M570.5,624.6c48.4,0,89.9-44.6,91.1-95.8c0.9-41.4-26.1-70.7-66.1-70.7c-50,0-91.2,44.3-90.9,98.2
		C504.8,596.6,532,624.6,570.5,624.6z M595.3,459.3c13.1,0,16.8,14,16.6,32.7c-0.5,36.7-11.3,131.6-41.2,131.6
		c-11.9,0-16.3-12.9-16.3-30.8C554.5,560,564.7,459.3,595.3,459.3z"/>
	<path class="st0" d="M796.8,458.2c-25.1,0-52.7,18.5-74.1,98.8l-0.8-0.3l16.9-70.3c5.1-21.2-2.1-28.2-17.9-28.2
		c-13.4,0-33.1,7-43,12.4l0.4,0.5c9.1-4,13.2-0.5,11.6,8.7L672,577.5c-6.9,37.4,2.5,47.5,23.9,47.5c6.5,0,14.2-1,22.9-2.4l0.6-0.6
		c-9.7-4.5-1-43.3,4.3-64.4c11.8-46.1,33.7-85.6,48-85.6c7.4,0,7.6,10.4,4.5,27.2l-14.2,76.7c-7,38,11.4,48.9,33.8,48.9
		c6.5,0,13.3-0.9,19.9-2.3l0.6-0.6c-12.6-2.4-7.3-39.3-1.9-65.6l8.8-44C827.5,491.1,830.4,458.2,796.8,458.2z"/>
	<path class="st0" d="M319.4,760.8l21.8-204.1c12.4,3.7,24.5,5.9,36.3,5.9c34,0,65.2-18,91.2-71.7l-0.7-0.4
		c-9.3,12-19.5,15.8-34.5,15.8c-60.3,0-157-68.1-229.2-68.1c-30.5,0-63.5,18.2-95,58.3l-0.2-0.2c39.3-61.3,111.4-69.2,123.3-149
		l18.6-123.6c3.7-24.7,12.6-74,43.5-74c14.7,0,23.5,12.7,23.5,22.6c0,12.1-8.4,25.6-22.4,25.2c-4.6,19.1,9.8,30.9,26,30.9
		c25.6,0,49.1-22.4,49.1-48.6c0-20.2-14-38.6-42.8-38.6c-76.5,0-138.9,82.4-150.1,153.8l-14.6,95.5c-9.5,62.6-38.8,76-58.2,111.5
		l1.1,0.6c11.2-17.3,20.7-20.1,33-20.1c48.4,0,96.8,26.7,142.7,49.3L258,783.7c-4.2,44.4,19.1,56.9,46.1,56.9c7.9,0,16-1,23.8-2.6
		l0.6-0.7C313.1,834.6,315.9,791.6,319.4,760.8z M178.2,459.2c-7.5,0.2-20,3.4-20,3.4c23-14.9,45.4-19.9,65-17
		c46.4,7,104.1,51.6,142.7,52.7c-7.5,7.8-19.5,12.1-41.3,8.8C278.9,500.3,232.7,458,178.2,459.2z"/>
	<path class="st0" d="M442.5,652.8c-60.8,0-109.3,52-107,114.9c1.7,46.9,35.6,79.5,82.2,79.5c58.5,0,107.4-51.8,107.3-111.6
		C524.9,687.1,491.1,652.8,442.5,652.8z M344.2,784.2c-3.4-18.1,5.7-32.7,8.3-36.7l2.3,17.3c2.2,16.6,9.6,32.1,21.2,44.2l16,16.7
		C367.3,822.2,348.2,805.1,344.2,784.2z M417.9,845.9c-14.4,0-20.2-15-20.7-35.8c-1-38.2,7.9-156.1,45.2-156.1
		c15.9,0,20.9,16.4,21.2,38.4C464.1,735.4,454,845.9,417.9,845.9z"/>
	<path class="st0" d="M676,649.8c-32,0-59.9,27.2-82.8,119l-1.3-0.4l17.6-82.6c5.4-24.9-3.3-33.1-22.6-33.1
		c-16.3,0-40,8.2-51.9,14.5l0.5,0.6c11-4.6,16.1-0.6,14.3,10.2l-29.5,191.3c-6.8,44.2,15.3,54,40.8,54c6.1,0,12.6-0.5,18.7-1.4
		l0.7-0.7c-12.4-3.9-4.4-50.1,0-74.1l12.7-68.9c9.8-52.3,38-116,58.3-116c8.5,0,10.4,10.2,10,27.4c-1.5,64.5-34.3,152.6-74.4,151.2
		l-0.2,0.3c7.2,2.4,13.1,3.1,22.2,3.1c68.4,0,109.8-74,111.8-132.1C722,678.1,709.4,649.8,676,649.8z M531,905.9
		c-8.9-11.2-3.4-39.2-1.8-47.8c1.9,12.5,5.8,24.4,9,32.4c2.6,6.6,7.6,11.9,14.1,14.8l15.4,7C564.8,913,539.9,918.2,531,905.9z"/>
	<path class="st0" d="M303.8,351c0,48.6,35.1,82.8,85.1,82.8c62.8,0,115.2-54.3,115.2-115.5c0-48.8-34.9-82.8-85.2-82.8
		C355.9,235.5,303.8,287.2,303.8,351z M418.6,236.8c16.5,0,21.4,16.2,21.4,38.1c0,43.2-12.3,157.7-51,157.7
		c-15.4,0-21.2-15.8-21.2-37.5C367.8,355.5,380.1,236.8,418.6,236.8z M361.9,418.3c-24.8-3.5-43.9-20.5-47.9-41.5
		c-3.4-18.1,5.7-32.7,8.3-36.7l2.3,17.3c2.2,16.6,9.6,32.1,21.2,44.2L361.9,418.3z"/>
	<path class="st0" d="M552.3,433.8c63.1,0,132.9-68.8,132.9-146.1c0-36.8-21.7-55.2-43.1-55.2c-19.6,0-37.9,15.5-37.9,40.5
		c0,15.5,9.8,29.8,27.7,30.9c4.9-28.3,48.2-29.1,48.2,2.4c0,54.6-61.6,116.6-95.9,116.6c-15.1,0-14.2-16.7-9.5-48l16.1-106.7
		c3.9-25-3.2-32.7-23.1-32.7c-16.8,0-41.4,8.1-53.7,14.3l0.5,0.6c11.4-4.6,16.7-0.6,14.9,10.1l-18.2,119.2
		C505.7,416.2,520.4,433.8,552.3,433.8z M522.3,361.4c2.1,14.1,6.6,27.5,10.2,36.7c2.9,7.4,8.6,13.4,15.9,16.7l17.4,7.9
		c-3.4,0.7-31.5,6.7-41.5-7.3C514.3,402.7,520.6,371.2,522.3,361.4z"/>
	<path class="st0" d="M763.7,313.1l-0.2,0.4c86.3,23.9,115.4-9.6,115.4-36.8c0-34.2-40-41.2-67.3-41.2
		c-66.6,0-117.8,56.7-117.8,119.6c0,49.3,30.2,78.7,72.6,78.7c40.7,0,77.9-27.2,100-65.5l-0.9-0.6c-16.5,21.2-37.2,28.3-53.3,28.3
		c-36.7,0-52.3-32.7-52.3-69c0-37.7,18.4-90.3,49.5-90.3c13.9,0,19.5,11.2,19.5,25.6C828.8,288.5,814.6,319.8,763.7,313.1z
		 M764.8,411.5l26.8,8c-28.1,11.1-58.4,4.6-75.1-15.1c-14.4-17-13.6-37.8-13.2-43.6l12.7,16.8C728.3,393.9,745.4,405.7,764.8,411.5z
		"/>
</g>
</svg>
